<svg id="visual" viewBox="0 0 900 300" width="900" height="300" xmlns="http://www.w3.org/2000/svg" xmlns:xlink="http://www.w3.org/1999/xlink" version="1.1"><path d="M0 133L8.3 137C16.7 141 33.3 149 50 152C66.7 155 83.3 153 100 152.5C116.7 152 133.3 153 150 154.8C166.7 156.7 183.3 159.3 200 157.2C216.7 155 233.3 148 250 147.5C266.7 147 283.3 153 300 154.8C316.7 156.7 333.3 154.3 350 154.7C366.7 155 383.3 158 400 156.2C416.7 154.3 433.3 147.7 450 144.3C466.7 141 483.3 141 500 142.7C516.7 144.3 533.3 147.7 550 145.8C566.7 144 583.3 137 600 137.5C616.7 138 633.3 146 650 145.5C666.7 145 683.3 136 700 138C716.7 140 733.3 153 750 152.2C766.7 151.3 783.3 136.7 800 136C816.7 135.3 833.3 148.7 850 153.2C866.7 157.7 883.3 153.3 891.7 151.2L900 149L900 0L891.7 0C883.3 0 866.7 0 850 0C833.3 0 816.7 0 800 0C783.3 0 766.7 0 750 0C733.3 0 716.7 0 700 0C683.3 0 666.7 0 650 0C633.3 0 616.7 0 600 0C583.3 0 566.7 0 550 0C533.3 0 516.7 0 500 0C483.3 0 466.7 0 450 0C433.3 0 416.7 0 400 0C383.3 0 366.7 0 350 0C333.3 0 316.7 0 300 0C283.3 0 266.7 0 250 0C233.3 0 216.7 0 200 0C183.3 0 166.7 0 150 0C133.3 0 116.7 0 100 0C83.3 0 66.7 0 50 0C33.3 0 16.7 0 8.3 0L0 0Z" fill="#012147"></path><path d="M0 105L8.3 114.8C16.7 124.7 33.3 144.3 50 143.8C66.7 143.3 83.3 122.7 100 119.7C116.7 116.7 133.3 131.3 150 134.7C166.7 138 183.3 130 200 130.3C216.7 130.7 233.3 139.3 250 143C266.7 146.7 283.3 145.3 300 144.7C316.7 144 333.3 144 350 145.7C366.7 147.3 383.3 150.7 400 146.5C416.7 142.3 433.3 130.7 450 126.3C466.7 122 483.3 125 500 128.5C516.7 132 533.3 136 550 134.7C566.7 133.3 583.3 126.7 600 129.5C616.7 132.3 633.3 144.7 650 146.2C666.7 147.7 683.3 138.3 700 130.3C716.7 122.3 733.3 115.7 750 113.2C766.7 110.7 783.3 112.3 800 120.3C816.7 128.3 833.3 142.7 850 143.3C866.7 144 883.3 131 891.7 124.5L900 118L900 0L891.7 0C883.3 0 866.7 0 850 0C833.3 0 816.7 0 800 0C783.3 0 766.7 0 750 0C733.3 0 716.7 0 700 0C683.3 0 666.7 0 650 0C633.3 0 616.7 0 600 0C583.3 0 566.7 0 550 0C533.3 0 516.7 0 500 0C483.3 0 466.7 0 450 0C433.3 0 416.7 0 400 0C383.3 0 366.7 0 350 0C333.3 0 316.7 0 300 0C283.3 0 266.7 0 250 0C233.3 0 216.7 0 200 0C183.3 0 166.7 0 150 0C133.3 0 116.7 0 100 0C83.3 0 66.7 0 50 0C33.3 0 16.7 0 8.3 0L0 0Z" fill="#002652"></path><path d="M0 148L8.3 147.2C16.7 146.3 33.3 144.7 50 143.2C66.7 141.7 83.3 140.3 100 134.3C116.7 128.3 133.3 117.7 150 115.8C166.7 114 183.3 121 200 126.3C216.7 131.7 233.3 135.3 250 130.3C266.7 125.3 283.3 111.7 300 104.5C316.7 97.3 333.3 96.7 350 105C366.7 113.3 383.3 130.7 400 137.2C416.7 143.7 433.3 139.3 450 130.8C466.7 122.3 483.3 109.7 500 110.2C516.7 110.7 533.3 124.3 550 131.2C566.7 138 583.3 138 600 135.3C616.7 132.7 633.3 127.3 650 128.3C666.7 129.3 683.3 136.7 700 137.3C716.7 138 733.3 132 750 123.7C766.7 115.3 783.3 104.7 800 103.7C816.7 102.7 833.3 111.3 850 113.7C866.7 116 883.3 112 891.7 110L900 108L900 0L891.7 0C883.3 0 866.7 0 850 0C833.3 0 816.7 0 800 0C783.3 0 766.7 0 750 0C733.3 0 716.7 0 700 0C683.3 0 666.7 0 650 0C633.3 0 616.7 0 600 0C583.3 0 566.7 0 550 0C533.3 0 516.7 0 500 0C483.3 0 466.7 0 450 0C433.3 0 416.7 0 400 0C383.3 0 366.7 0 350 0C333.3 0 316.7 0 300 0C283.3 0 266.7 0 250 0C233.3 0 216.7 0 200 0C183.3 0 166.7 0 150 0C133.3 0 116.7 0 100 0C83.3 0 66.7 0 50 0C33.3 0 16.7 0 8.3 0L0 0Z" fill="#002b5c"></path><path d="M0 92L8.3 91.5C16.7 91 33.3 90 50 96.5C66.7 103 83.3 117 100 119.8C116.7 122.7 133.3 114.3 150 106.5C166.7 98.7 183.3 91.3 200 94C216.7 96.7 233.3 109.3 250 111.5C266.7 113.7 283.3 105.3 300 102.5C316.7 99.7 333.3 102.3 350 103.7C366.7 105 383.3 105 400 106.5C416.7 108 433.3 111 450 113.3C466.7 115.7 483.3 117.3 500 114C516.7 110.7 533.3 102.3 550 99C566.7 95.7 583.3 97.3 600 100C616.7 102.7 633.3 106.3 650 110.3C666.7 114.3 683.3 118.7 700 113.8C716.7 109 733.3 95 750 92.3C766.7 89.7 783.3 98.3 800 98.8C816.7 99.3 833.3 91.7 850 90.3C866.7 89 883.3 94 891.7 96.5L900 99L900 0L891.7 0C883.3 0 866.7 0 850 0C833.3 0 816.7 0 800 0C783.3 0 766.7 0 750 0C733.3 0 716.7 0 700 0C683.3 0 666.7 0 650 0C633.3 0 616.7 0 600 0C583.3 0 566.7 0 550 0C533.3 0 516.7 0 500 0C483.3 0 466.7 0 450 0C433.3 0 416.7 0 400 0C383.3 0 366.7 0 350 0C333.3 0 316.7 0 300 0C283.3 0 266.7 0 250 0C233.3 0 216.7 0 200 0C183.3 0 166.7 0 150 0C133.3 0 116.7 0 100 0C83.3 0 66.7 0 50 0C33.3 0 16.7 0 8.3 0L0 0Z" fill="#003067"></path><path d="M0 108L8.3 108.5C16.7 109 33.3 110 50 107C66.7 104 83.3 97 100 95.8C116.7 94.7 133.3 99.3 150 99.8C166.7 100.3 183.3 96.7 200 95.2C216.7 93.7 233.3 94.3 250 95.5C266.7 96.7 283.3 98.3 300 94.5C316.7 90.7 333.3 81.3 350 83.3C366.7 85.3 383.3 98.7 400 101.7C416.7 104.7 433.3 97.3 450 93.8C466.7 90.3 483.3 90.7 500 91C516.7 91.3 533.3 91.7 550 91C566.7 90.3 583.3 88.7 600 91.5C616.7 94.3 633.3 101.7 650 100.8C666.7 100 683.3 91 700 85.2C716.7 79.3 733.3 76.7 750 81C766.7 85.3 783.3 96.7 800 97.5C816.7 98.3 833.3 88.7 850 88.8C866.7 89 883.3 99 891.7 104L900 109L900 0L891.7 0C883.3 0 866.7 0 850 0C833.3 0 816.7 0 800 0C783.3 0 766.7 0 750 0C733.3 0 716.7 0 700 0C683.3 0 666.7 0 650 0C633.3 0 616.7 0 600 0C583.3 0 566.7 0 550 0C533.3 0 516.7 0 500 0C483.3 0 466.7 0 450 0C433.3 0 416.7 0 400 0C383.3 0 366.7 0 350 0C333.3 0 316.7 0 300 0C283.3 0 266.7 0 250 0C233.3 0 216.7 0 200 0C183.3 0 166.7 0 150 0C133.3 0 116.7 0 100 0C83.3 0 66.7 0 50 0C33.3 0 16.7 0 8.3 0L0 0Z" fill="#003572"></path><path d="M0 97L8.3 91C16.7 85 33.3 73 50 66.3C66.7 59.7 83.3 58.3 100 58.5C116.7 58.7 133.3 60.3 150 63C166.7 65.7 183.3 69.3 200 73.3C216.7 77.3 233.3 81.7 250 79.5C266.7 77.3 283.3 68.7 300 68.5C316.7 68.3 333.3 76.7 350 79.8C366.7 83 383.3 81 400 79.3C416.7 77.7 433.3 76.3 450 75.2C466.7 74 483.3 73 500 73.7C516.7 74.3 533.3 76.7 550 75.3C566.7 74 583.3 69 600 67C616.7 65 633.3 66 650 65.8C666.7 65.7 683.3 64.3 700 68.8C716.7 73.3 733.3 83.7 750 89C766.7 94.3 783.3 94.7 800 94.8C816.7 95 833.3 95 850 89.2C866.7 83.3 883.3 71.7 891.7 65.8L900 60L900 0L891.7 0C883.3 0 866.7 0 850 0C833.3 0 816.7 0 800 0C783.3 0 766.7 0 750 0C733.3 0 716.7 0 700 0C683.3 0 666.7 0 650 0C633.3 0 616.7 0 600 0C583.3 0 566.7 0 550 0C533.3 0 516.7 0 500 0C483.3 0 466.7 0 450 0C433.3 0 416.7 0 400 0C383.3 0 366.7 0 350 0C333.3 0 316.7 0 300 0C283.3 0 266.7 0 250 0C233.3 0 216.7 0 200 0C183.3 0 166.7 0 150 0C133.3 0 116.7 0 100 0C83.3 0 66.7 0 50 0C33.3 0 16.7 0 8.3 0L0 0Z" fill="#00397e"></path><path d="M0 68L8.3 67.5C16.7 67 33.3 66 50 62.5C66.7 59 83.3 53 100 53.8C116.7 54.7 133.3 62.3 150 64.5C166.7 66.7 183.3 63.3 200 60.5C216.7 57.7 233.3 55.3 250 55.3C266.7 55.3 283.3 57.7 300 56.8C316.7 56 333.3 52 350 55.5C366.7 59 383.3 70 400 73C416.7 76 433.3 71 450 70.7C466.7 70.3 483.3 74.7 500 71.7C516.7 68.7 533.3 58.3 550 57.7C566.7 57 583.3 66 600 69.3C616.7 72.7 633.3 70.3 650 68.7C666.7 67 683.3 66 700 66.7C716.7 67.3 733.3 69.7 750 69.8C766.7 70 783.3 68 800 66C816.7 64 833.3 62 850 60.2C866.7 58.3 883.3 56.7 891.7 55.8L900 55L900 0L891.7 0C883.3 0 866.7 0 850 0C833.3 0 816.7 0 800 0C783.3 0 766.7 0 750 0C733.3 0 716.7 0 700 0C683.3 0 666.7 0 650 0C633.3 0 616.7 0 600 0C583.3 0 566.7 0 550 0C533.3 0 516.7 0 500 0C483.3 0 466.7 0 450 0C433.3 0 416.7 0 400 0C383.3 0 366.7 0 350 0C333.3 0 316.7 0 300 0C283.3 0 266.7 0 250 0C233.3 0 216.7 0 200 0C183.3 0 166.7 0 150 0C133.3 0 116.7 0 100 0C83.3 0 66.7 0 50 0C33.3 0 16.7 0 8.3 0L0 0Z" fill="#003e89"></path><path d="M0 59L8.3 57.8C16.7 56.7 33.3 54.3 50 54.5C66.7 54.7 83.3 57.3 100 55.7C116.7 54 133.3 48 150 44.5C166.7 41 183.3 40 200 40.3C216.7 40.7 233.3 42.3 250 46.2C266.7 50 283.3 56 300 59.2C316.7 62.3 333.3 62.7 350 59.8C366.7 57 383.3 51 400 51.2C416.7 51.3 433.3 57.7 450 60.2C466.7 62.7 483.3 61.3 500 58.3C516.7 55.3 533.3 50.7 550 51C566.7 51.3 583.3 56.7 600 59.3C616.7 62 633.3 62 650 58C666.7 54 683.3 46 700 44.8C716.7 43.7 733.3 49.3 750 50C766.7 50.7 783.3 46.3 800 46.8C816.7 47.3 833.3 52.7 850 53.3C866.7 54 883.3 50 891.7 48L900 46L900 0L891.7 0C883.3 0 866.7 0 850 0C833.3 0 816.7 0 800 0C783.3 0 766.7 0 750 0C733.3 0 716.7 0 700 0C683.3 0 666.7 0 650 0C633.3 0 616.7 0 600 0C583.3 0 566.7 0 550 0C533.3 0 516.7 0 500 0C483.3 0 466.7 0 450 0C433.3 0 416.7 0 400 0C383.3 0 366.7 0 350 0C333.3 0 316.7 0 300 0C283.3 0 266.7 0 250 0C233.3 0 216.7 0 200 0C183.3 0 166.7 0 150 0C133.3 0 116.7 0 100 0C83.3 0 66.7 0 50 0C33.3 0 16.7 0 8.3 0L0 0Z" fill="#004394"></path><path d="M0 40L8.3 37.5C16.7 35 33.3 30 50 30.2C66.7 30.3 83.3 35.7 100 38.8C116.7 42 133.3 43 150 43.7C166.7 44.3 183.3 44.7 200 41.5C216.7 38.3 233.3 31.7 250 30.5C266.7 29.3 283.3 33.7 300 34.8C316.7 36 333.3 34 350 32.2C366.7 30.3 383.3 28.7 400 29.5C416.7 30.3 433.3 33.7 450 36.7C466.7 39.7 483.3 42.3 500 41C516.7 39.7 533.3 34.3 550 31.7C566.7 29 583.3 29 600 28.5C616.7 28 633.3 27 650 29.3C666.7 31.7 683.3 37.3 700 38.5C716.7 39.7 733.3 36.3 750 36.2C766.7 36 783.3 39 800 39.5C816.7 40 833.3 38 850 38.7C866.7 39.3 883.3 42.7 891.7 44.3L900 46L900 0L891.7 0C883.3 0 866.7 0 850 0C833.3 0 816.7 0 800 0C783.3 0 766.7 0 750 0C733.3 0 716.7 0 700 0C683.3 0 666.7 0 650 0C633.3 0 616.7 0 600 0C583.3 0 566.7 0 550 0C533.3 0 516.7 0 500 0C483.3 0 466.7 0 450 0C433.3 0 416.7 0 400 0C383.3 0 366.7 0 350 0C333.3 0 316.7 0 300 0C283.3 0 266.7 0 250 0C233.3 0 216.7 0 200 0C183.3 0 166.7 0 150 0C133.3 0 116.7 0 100 0C83.3 0 66.7 0 50 0C33.3 0 16.7 0 8.3 0L0 0Z" fill="#00489f"></path><path d="M0 15L8.3 15C16.7 15 33.3 15 50 15.7C66.7 16.3 83.3 17.7 100 18.5C116.7 19.3 133.3 19.7 150 19.5C166.7 19.3 183.3 18.7 200 18.7C216.7 18.7 233.3 19.3 250 19.2C266.7 19 283.3 18 300 18.8C316.7 19.7 333.3 22.3 350 24.2C366.7 26 383.3 27 400 25.8C416.7 24.7 433.3 21.3 450 21.3C466.7 21.3 483.3 24.7 500 26.3C516.7 28 533.3 28 550 27.8C566.7 27.7 583.3 27.3 600 26.3C616.7 25.3 633.3 23.7 650 21.8C666.7 20 683.3 18 700 18.8C716.7 19.7 733.3 23.3 750 24.3C766.7 25.3 783.3 23.7 800 23.8C816.7 24 833.3 26 850 25C866.7 24 883.3 20 891.7 18L900 16L900 0L891.7 0C883.3 0 866.7 0 850 0C833.3 0 816.7 0 800 0C783.3 0 766.7 0 750 0C733.3 0 716.7 0 700 0C683.3 0 666.7 0 650 0C633.3 0 616.7 0 600 0C583.3 0 566.7 0 550 0C533.3 0 516.7 0 500 0C483.3 0 466.7 0 450 0C433.3 0 416.7 0 400 0C383.3 0 366.7 0 350 0C333.3 0 316.7 0 300 0C283.3 0 266.7 0 250 0C233.3 0 216.7 0 200 0C183.3 0 166.7 0 150 0C133.3 0 116.7 0 100 0C83.3 0 66.7 0 50 0C33.3 0 16.7 0 8.3 0L0 0Z" fill="#004dab"></path></svg>