<svg id="visual" viewBox="0 0 960 300" width="960" height="300" xmlns="http://www.w3.org/2000/svg" xmlns:xlink="http://www.w3.org/1999/xlink" version="1.1"><rect x="0" y="0" width="960" height="300" fill="#202020"></rect><path d="M0 101L7 95.8C14 90.7 28 80.3 41.8 82.3C55.7 84.3 69.3 98.7 83.2 101.2C97 103.7 111 94.3 125 87.5C139 80.7 153 76.3 167 80.3C181 84.3 195 96.7 208.8 97.2C222.7 97.7 236.3 86.3 250.2 80.3C264 74.3 278 73.7 292 77.7C306 81.7 320 90.3 334 91.7C348 93 362 87 375.8 87.3C389.7 87.7 403.3 94.3 417.2 96.5C431 98.7 445 96.3 459 99C473 101.7 487 109.3 501 112.2C515 115 529 113 542.8 108.2C556.7 103.3 570.3 95.7 584.2 93.5C598 91.3 612 94.7 626 99.8C640 105 654 112 668 107.7C682 103.3 696 87.7 709.8 83.5C723.7 79.3 737.3 86.7 751.2 88.2C765 89.7 779 85.3 793 87.5C807 89.7 821 98.3 835 104.5C849 110.7 863 114.3 876.8 113.8C890.7 113.3 904.3 108.7 918.2 105.7C932 102.7 946 101.3 953 100.7L960 100L960 0L953 0C946 0 932 0 918.2 0C904.3 0 890.7 0 876.8 0C863 0 849 0 835 0C821 0 807 0 793 0C779 0 765 0 751.2 0C737.3 0 723.7 0 709.8 0C696 0 682 0 668 0C654 0 640 0 626 0C612 0 598 0 584.2 0C570.3 0 556.7 0 542.8 0C529 0 515 0 501 0C487 0 473 0 459 0C445 0 431 0 417.2 0C403.3 0 389.7 0 375.8 0C362 0 348 0 334 0C320 0 306 0 292 0C278 0 264 0 250.2 0C236.3 0 222.7 0 208.8 0C195 0 181 0 167 0C153 0 139 0 125 0C111 0 97 0 83.2 0C69.3 0 55.7 0 41.8 0C28 0 14 0 7 0L0 0Z" fill="#003a81"></path><path d="M0 103L7 98.8C14 94.7 28 86.3 41.8 82.7C55.7 79 69.3 80 83.2 83.5C97 87 111 93 125 93.8C139 94.7 153 90.3 167 85.8C181 81.3 195 76.7 208.8 76C222.7 75.3 236.3 78.7 250.2 78.5C264 78.3 278 74.7 292 74.8C306 75 320 79 334 84.2C348 89.3 362 95.7 375.8 94.8C389.7 94 403.3 86 417.2 84C431 82 445 86 459 90.8C473 95.7 487 101.3 501 104.3C515 107.3 529 107.7 542.8 101.3C556.7 95 570.3 82 584.2 77.3C598 72.7 612 76.3 626 77.7C640 79 654 78 668 81.7C682 85.3 696 93.7 709.8 96.5C723.7 99.3 737.3 96.7 751.2 91C765 85.3 779 76.7 793 72.2C807 67.7 821 67.3 835 67C849 66.7 863 66.3 876.8 70.8C890.7 75.3 904.3 84.7 918.2 85.5C932 86.3 946 78.7 953 74.8L960 71L960 0L953 0C946 0 932 0 918.2 0C904.3 0 890.7 0 876.8 0C863 0 849 0 835 0C821 0 807 0 793 0C779 0 765 0 751.2 0C737.3 0 723.7 0 709.8 0C696 0 682 0 668 0C654 0 640 0 626 0C612 0 598 0 584.2 0C570.3 0 556.7 0 542.8 0C529 0 515 0 501 0C487 0 473 0 459 0C445 0 431 0 417.2 0C403.3 0 389.7 0 375.8 0C362 0 348 0 334 0C320 0 306 0 292 0C278 0 264 0 250.2 0C236.3 0 222.7 0 208.8 0C195 0 181 0 167 0C153 0 139 0 125 0C111 0 97 0 83.2 0C69.3 0 55.7 0 41.8 0C28 0 14 0 7 0L0 0Z" fill="#08428c"></path><path d="M0 72L7 70.3C14 68.7 28 65.3 41.8 67.5C55.7 69.7 69.3 77.3 83.2 80.3C97 83.3 111 81.7 125 84.2C139 86.7 153 93.3 167 91.5C181 89.7 195 79.3 208.8 73.3C222.7 67.3 236.3 65.7 250.2 65.7C264 65.7 278 67.3 292 70.5C306 73.7 320 78.3 334 80.7C348 83 362 83 375.8 80C389.7 77 403.3 71 417.2 73.8C431 76.7 445 88.3 459 92.8C473 97.3 487 94.7 501 89.7C515 84.7 529 77.3 542.8 74.7C556.7 72 570.3 74 584.2 75C598 76 612 76 626 73C640 70 654 64 668 62C682 60 696 62 709.8 64.3C723.7 66.7 737.3 69.3 751.2 70.8C765 72.3 779 72.7 793 72.2C807 71.7 821 70.3 835 67.8C849 65.3 863 61.7 876.8 61.3C890.7 61 904.3 64 918.2 66.3C932 68.7 946 70.3 953 71.2L960 72L960 0L953 0C946 0 932 0 918.2 0C904.3 0 890.7 0 876.8 0C863 0 849 0 835 0C821 0 807 0 793 0C779 0 765 0 751.2 0C737.3 0 723.7 0 709.8 0C696 0 682 0 668 0C654 0 640 0 626 0C612 0 598 0 584.2 0C570.3 0 556.7 0 542.8 0C529 0 515 0 501 0C487 0 473 0 459 0C445 0 431 0 417.2 0C403.3 0 389.7 0 375.8 0C362 0 348 0 334 0C320 0 306 0 292 0C278 0 264 0 250.2 0C236.3 0 222.7 0 208.8 0C195 0 181 0 167 0C153 0 139 0 125 0C111 0 97 0 83.2 0C69.3 0 55.7 0 41.8 0C28 0 14 0 7 0L0 0Z" fill="#114a97"></path><path d="M0 60L7 61.8C14 63.7 28 67.3 41.8 72.3C55.7 77.3 69.3 83.7 83.2 85C97 86.3 111 82.7 125 82.3C139 82 153 85 167 82.2C181 79.3 195 70.7 208.8 70.5C222.7 70.3 236.3 78.7 250.2 80.2C264 81.7 278 76.3 292 72.8C306 69.3 320 67.7 334 64.8C348 62 362 58 375.8 58.3C389.7 58.7 403.3 63.3 417.2 63.7C431 64 445 60 459 57.7C473 55.3 487 54.7 501 58.8C515 63 529 72 542.8 72.7C556.7 73.3 570.3 65.7 584.2 62.8C598 60 612 62 626 63.7C640 65.3 654 66.7 668 65.5C682 64.3 696 60.7 709.8 63.5C723.7 66.3 737.3 75.7 751.2 77.5C765 79.3 779 73.7 793 72.2C807 70.7 821 73.3 835 72.8C849 72.3 863 68.7 876.8 67C890.7 65.3 904.3 65.7 918.2 66.5C932 67.3 946 68.7 953 69.3L960 70L960 0L953 0C946 0 932 0 918.2 0C904.3 0 890.7 0 876.8 0C863 0 849 0 835 0C821 0 807 0 793 0C779 0 765 0 751.2 0C737.3 0 723.7 0 709.8 0C696 0 682 0 668 0C654 0 640 0 626 0C612 0 598 0 584.2 0C570.3 0 556.7 0 542.8 0C529 0 515 0 501 0C487 0 473 0 459 0C445 0 431 0 417.2 0C403.3 0 389.7 0 375.8 0C362 0 348 0 334 0C320 0 306 0 292 0C278 0 264 0 250.2 0C236.3 0 222.7 0 208.8 0C195 0 181 0 167 0C153 0 139 0 125 0C111 0 97 0 83.2 0C69.3 0 55.7 0 41.8 0C28 0 14 0 7 0L0 0Z" fill="#1853a2"></path><path d="M0 81L7 77.8C14 74.7 28 68.3 41.8 68.5C55.7 68.7 69.3 75.3 83.2 77.5C97 79.7 111 77.3 125 73.8C139 70.3 153 65.7 167 66.2C181 66.7 195 72.3 208.8 72.8C222.7 73.3 236.3 68.7 250.2 63.5C264 58.3 278 52.7 292 54.5C306 56.3 320 65.7 334 69.5C348 73.3 362 71.7 375.8 67.5C389.7 63.3 403.3 56.7 417.2 53C431 49.3 445 48.7 459 53.7C473 58.7 487 69.3 501 73.7C515 78 529 76 542.8 70.2C556.7 64.3 570.3 54.7 584.2 52.3C598 50 612 55 626 57.7C640 60.3 654 60.7 668 62C682 63.3 696 65.7 709.8 65.7C723.7 65.7 737.3 63.3 751.2 59.8C765 56.3 779 51.7 793 51.8C807 52 821 57 835 61.2C849 65.3 863 68.7 876.8 69.7C890.7 70.7 904.3 69.3 918.2 64.7C932 60 946 52 953 48L960 44L960 0L953 0C946 0 932 0 918.2 0C904.3 0 890.7 0 876.8 0C863 0 849 0 835 0C821 0 807 0 793 0C779 0 765 0 751.2 0C737.3 0 723.7 0 709.8 0C696 0 682 0 668 0C654 0 640 0 626 0C612 0 598 0 584.2 0C570.3 0 556.7 0 542.8 0C529 0 515 0 501 0C487 0 473 0 459 0C445 0 431 0 417.2 0C403.3 0 389.7 0 375.8 0C362 0 348 0 334 0C320 0 306 0 292 0C278 0 264 0 250.2 0C236.3 0 222.7 0 208.8 0C195 0 181 0 167 0C153 0 139 0 125 0C111 0 97 0 83.2 0C69.3 0 55.7 0 41.8 0C28 0 14 0 7 0L0 0Z" fill="#1e5cad"></path><path d="M0 45L7 44.2C14 43.3 28 41.7 41.8 43.3C55.7 45 69.3 50 83.2 53.8C97 57.7 111 60.3 125 63.2C139 66 153 69 167 70.2C181 71.3 195 70.7 208.8 66.8C222.7 63 236.3 56 250.2 54.5C264 53 278 57 292 57.7C306 58.3 320 55.7 334 56.2C348 56.7 362 60.3 375.8 60.2C389.7 60 403.3 56 417.2 53C431 50 445 48 459 51C473 54 487 62 501 61.5C515 61 529 52 542.8 50.8C556.7 49.7 570.3 56.3 584.2 61.2C598 66 612 69 626 64.8C640 60.7 654 49.3 668 45.2C682 41 696 44 709.8 47.7C723.7 51.3 737.3 55.7 751.2 59.2C765 62.7 779 65.3 793 64.2C807 63 821 58 835 57.3C849 56.7 863 60.3 876.8 58C890.7 55.7 904.3 47.3 918.2 45.8C932 44.3 946 49.7 953 52.3L960 55L960 0L953 0C946 0 932 0 918.2 0C904.3 0 890.7 0 876.8 0C863 0 849 0 835 0C821 0 807 0 793 0C779 0 765 0 751.2 0C737.3 0 723.7 0 709.8 0C696 0 682 0 668 0C654 0 640 0 626 0C612 0 598 0 584.2 0C570.3 0 556.7 0 542.8 0C529 0 515 0 501 0C487 0 473 0 459 0C445 0 431 0 417.2 0C403.3 0 389.7 0 375.8 0C362 0 348 0 334 0C320 0 306 0 292 0C278 0 264 0 250.2 0C236.3 0 222.7 0 208.8 0C195 0 181 0 167 0C153 0 139 0 125 0C111 0 97 0 83.2 0C69.3 0 55.7 0 41.8 0C28 0 14 0 7 0L0 0Z" fill="#2365b8"></path><path d="M0 63L7 59.2C14 55.3 28 47.7 41.8 44.3C55.7 41 69.3 42 83.2 42.3C97 42.7 111 42.3 125 40.5C139 38.7 153 35.3 167 37C181 38.7 195 45.3 208.8 45.3C222.7 45.3 236.3 38.7 250.2 40.3C264 42 278 52 292 56.3C306 60.7 320 59.3 334 56.8C348 54.3 362 50.7 375.8 51.2C389.7 51.7 403.3 56.3 417.2 57.7C431 59 445 57 459 56C473 55 487 55 501 54C515 53 529 51 542.8 51C556.7 51 570.3 53 584.2 51C598 49 612 43 626 43.2C640 43.3 654 49.7 668 50.2C682 50.7 696 45.3 709.8 41.8C723.7 38.3 737.3 36.7 751.2 36.7C765 36.7 779 38.3 793 38.5C807 38.7 821 37.3 835 40.2C849 43 863 50 876.8 54.2C890.7 58.3 904.3 59.7 918.2 56.5C932 53.3 946 45.7 953 41.8L960 38L960 0L953 0C946 0 932 0 918.2 0C904.3 0 890.7 0 876.8 0C863 0 849 0 835 0C821 0 807 0 793 0C779 0 765 0 751.2 0C737.3 0 723.7 0 709.8 0C696 0 682 0 668 0C654 0 640 0 626 0C612 0 598 0 584.2 0C570.3 0 556.7 0 542.8 0C529 0 515 0 501 0C487 0 473 0 459 0C445 0 431 0 417.2 0C403.3 0 389.7 0 375.8 0C362 0 348 0 334 0C320 0 306 0 292 0C278 0 264 0 250.2 0C236.3 0 222.7 0 208.8 0C195 0 181 0 167 0C153 0 139 0 125 0C111 0 97 0 83.2 0C69.3 0 55.7 0 41.8 0C28 0 14 0 7 0L0 0Z" fill="#296ec4"></path><path d="M0 26L7 28.7C14 31.3 28 36.7 41.8 39C55.7 41.3 69.3 40.7 83.2 39C97 37.3 111 34.7 125 33C139 31.3 153 30.7 167 33.7C181 36.7 195 43.3 208.8 43.7C222.7 44 236.3 38 250.2 37C264 36 278 40 292 39.8C306 39.7 320 35.3 334 33.3C348 31.3 362 31.7 375.8 34C389.7 36.3 403.3 40.7 417.2 44.3C431 48 445 51 459 51.3C473 51.7 487 49.3 501 45.5C515 41.7 529 36.3 542.8 33.2C556.7 30 570.3 29 584.2 30.2C598 31.3 612 34.7 626 36.7C640 38.7 654 39.3 668 41.5C682 43.7 696 47.3 709.8 49.7C723.7 52 737.3 53 751.2 50.5C765 48 779 42 793 41.2C807 40.3 821 44.7 835 46.7C849 48.7 863 48.3 876.8 47C890.7 45.7 904.3 43.3 918.2 43.7C932 44 946 47 953 48.5L960 50L960 0L953 0C946 0 932 0 918.2 0C904.3 0 890.7 0 876.8 0C863 0 849 0 835 0C821 0 807 0 793 0C779 0 765 0 751.2 0C737.3 0 723.7 0 709.8 0C696 0 682 0 668 0C654 0 640 0 626 0C612 0 598 0 584.2 0C570.3 0 556.7 0 542.8 0C529 0 515 0 501 0C487 0 473 0 459 0C445 0 431 0 417.2 0C403.3 0 389.7 0 375.8 0C362 0 348 0 334 0C320 0 306 0 292 0C278 0 264 0 250.2 0C236.3 0 222.7 0 208.8 0C195 0 181 0 167 0C153 0 139 0 125 0C111 0 97 0 83.2 0C69.3 0 55.7 0 41.8 0C28 0 14 0 7 0L0 0Z" fill="#2e77cf"></path><path d="M0 40L7 39.5C14 39 28 38 41.8 37.5C55.7 37 69.3 37 83.2 34.2C97 31.3 111 25.7 125 25.8C139 26 153 32 167 32.5C181 33 195 28 208.8 25.3C222.7 22.7 236.3 22.3 250.2 23.5C264 24.7 278 27.3 292 27C306 26.7 320 23.3 334 25.5C348 27.7 362 35.3 375.8 37.5C389.7 39.7 403.3 36.3 417.2 32.7C431 29 445 25 459 23.7C473 22.3 487 23.7 501 23.2C515 22.7 529 20.3 542.8 21.7C556.7 23 570.3 28 584.2 31.2C598 34.3 612 35.7 626 35.3C640 35 654 33 668 33.2C682 33.3 696 35.7 709.8 37.7C723.7 39.7 737.3 41.3 751.2 38.5C765 35.7 779 28.3 793 28.2C807 28 821 35 835 39C849 43 863 44 876.8 43.2C890.7 42.3 904.3 39.7 918.2 37.7C932 35.7 946 34.3 953 33.7L960 33L960 0L953 0C946 0 932 0 918.2 0C904.3 0 890.7 0 876.8 0C863 0 849 0 835 0C821 0 807 0 793 0C779 0 765 0 751.2 0C737.3 0 723.7 0 709.8 0C696 0 682 0 668 0C654 0 640 0 626 0C612 0 598 0 584.2 0C570.3 0 556.7 0 542.8 0C529 0 515 0 501 0C487 0 473 0 459 0C445 0 431 0 417.2 0C403.3 0 389.7 0 375.8 0C362 0 348 0 334 0C320 0 306 0 292 0C278 0 264 0 250.2 0C236.3 0 222.7 0 208.8 0C195 0 181 0 167 0C153 0 139 0 125 0C111 0 97 0 83.2 0C69.3 0 55.7 0 41.8 0C28 0 14 0 7 0L0 0Z" fill="#3280db"></path><path d="M0 17L7 17.7C14 18.3 28 19.7 41.8 20.3C55.7 21 69.3 21 83.2 20.3C97 19.7 111 18.3 125 17.7C139 17 153 17 167 17.8C181 18.7 195 20.3 208.8 22.8C222.7 25.3 236.3 28.7 250.2 30C264 31.3 278 30.7 292 28.5C306 26.3 320 22.7 334 21.7C348 20.7 362 22.3 375.8 24.3C389.7 26.3 403.3 28.7 417.2 29C431 29.3 445 27.7 459 26.3C473 25 487 24 501 24.8C515 25.7 529 28.3 542.8 28.8C556.7 29.3 570.3 27.7 584.2 26.5C598 25.3 612 24.7 626 22.5C640 20.3 654 16.7 668 18.2C682 19.7 696 26.3 709.8 27.2C723.7 28 737.3 23 751.2 22C765 21 779 24 793 23.5C807 23 821 19 835 20.2C849 21.3 863 27.7 876.8 27.8C890.7 28 904.3 22 918.2 20.8C932 19.7 946 23.3 953 25.2L960 27L960 0L953 0C946 0 932 0 918.2 0C904.3 0 890.7 0 876.8 0C863 0 849 0 835 0C821 0 807 0 793 0C779 0 765 0 751.2 0C737.3 0 723.7 0 709.8 0C696 0 682 0 668 0C654 0 640 0 626 0C612 0 598 0 584.2 0C570.3 0 556.7 0 542.8 0C529 0 515 0 501 0C487 0 473 0 459 0C445 0 431 0 417.2 0C403.3 0 389.7 0 375.8 0C362 0 348 0 334 0C320 0 306 0 292 0C278 0 264 0 250.2 0C236.3 0 222.7 0 208.8 0C195 0 181 0 167 0C153 0 139 0 125 0C111 0 97 0 83.2 0C69.3 0 55.7 0 41.8 0C28 0 14 0 7 0L0 0Z" fill="#378ae7"></path><path d="M0 20L7 19.2C14 18.3 28 16.7 41.8 14.3C55.7 12 69.3 9 83.2 8.2C97 7.3 111 8.7 125 10C139 11.3 153 12.7 167 14.7C181 16.7 195 19.3 208.8 20C222.7 20.7 236.3 19.3 250.2 16.7C264 14 278 10 292 10.8C306 11.7 320 17.3 334 19C348 20.7 362 18.3 375.8 18.5C389.7 18.7 403.3 21.3 417.2 21C431 20.7 445 17.3 459 16.3C473 15.3 487 16.7 501 18.8C515 21 529 24 542.8 22.5C556.7 21 570.3 15 584.2 12.7C598 10.3 612 11.7 626 12.2C640 12.7 654 12.3 668 12C682 11.7 696 11.3 709.8 10.5C723.7 9.7 737.3 8.3 751.2 9.8C765 11.3 779 15.7 793 18.3C807 21 821 22 835 22.2C849 22.3 863 21.7 876.8 19.2C890.7 16.7 904.3 12.3 918.2 12.5C932 12.7 946 17.3 953 19.7L960 22L960 0L953 0C946 0 932 0 918.2 0C904.3 0 890.7 0 876.8 0C863 0 849 0 835 0C821 0 807 0 793 0C779 0 765 0 751.2 0C737.3 0 723.7 0 709.8 0C696 0 682 0 668 0C654 0 640 0 626 0C612 0 598 0 584.2 0C570.3 0 556.7 0 542.8 0C529 0 515 0 501 0C487 0 473 0 459 0C445 0 431 0 417.2 0C403.3 0 389.7 0 375.8 0C362 0 348 0 334 0C320 0 306 0 292 0C278 0 264 0 250.2 0C236.3 0 222.7 0 208.8 0C195 0 181 0 167 0C153 0 139 0 125 0C111 0 97 0 83.2 0C69.3 0 55.7 0 41.8 0C28 0 14 0 7 0L0 0Z" fill="#3c93f3"></path><path d="M0 4L7 4C14 4 28 4 41.8 4.3C55.7 4.7 69.3 5.3 83.2 7.3C97 9.3 111 12.7 125 12.7C139 12.7 153 9.3 167 7.7C181 6 195 6 208.8 5C222.7 4 236.3 2 250.2 2.7C264 3.3 278 6.7 292 9.2C306 11.7 320 13.3 334 13.5C348 13.7 362 12.3 375.8 10.3C389.7 8.3 403.3 5.7 417.2 5.3C431 5 445 7 459 9.2C473 11.3 487 13.7 501 14C515 14.3 529 12.7 542.8 11.7C556.7 10.7 570.3 10.3 584.2 9.3C598 8.3 612 6.7 626 5.5C640 4.3 654 3.7 668 4.8C682 6 696 9 709.8 11.2C723.7 13.3 737.3 14.7 751.2 13.5C765 12.3 779 8.7 793 7.2C807 5.7 821 6.3 835 5.5C849 4.7 863 2.3 876.8 3.5C890.7 4.7 904.3 9.3 918.2 11.7C932 14 946 14 953 14L960 14L960 0L953 0C946 0 932 0 918.2 0C904.3 0 890.7 0 876.8 0C863 0 849 0 835 0C821 0 807 0 793 0C779 0 765 0 751.2 0C737.3 0 723.7 0 709.8 0C696 0 682 0 668 0C654 0 640 0 626 0C612 0 598 0 584.2 0C570.3 0 556.7 0 542.8 0C529 0 515 0 501 0C487 0 473 0 459 0C445 0 431 0 417.2 0C403.3 0 389.7 0 375.8 0C362 0 348 0 334 0C320 0 306 0 292 0C278 0 264 0 250.2 0C236.3 0 222.7 0 208.8 0C195 0 181 0 167 0C153 0 139 0 125 0C111 0 97 0 83.2 0C69.3 0 55.7 0 41.8 0C28 0 14 0 7 0L0 0Z" fill="#409dff"></path></svg>